<svg width="32" height="32" viewBox="0 0 24 24" fill="none" xmlns="http://www.w3.org/2000/svg">
<path d="M4 4L5 5" stroke="black" stroke-width="2" stroke-linejoin="round"/>
<path d="M19 19L20 20" stroke="black" stroke-width="2" stroke-linejoin="round"/>
<path d="M8 8L15 15" stroke="black" stroke-width="2" stroke-linejoin="round"/>
<path d="M3.06055 10.0607L3.93934 10.9395C4.52512 11.5252 5.47487 11.5253 6.06066 10.9395L8.5 8.50012L10.9393 6.06078C11.5251 5.475 11.5251 4.52525 10.9393 3.93946L10.0606 3.06076C9.47486 2.47498 8.52513 2.47498 7.93934 3.06074L3.06057 7.93934C2.47477 8.52512 2.47476 9.47489 3.06055 10.0607Z" stroke="black" stroke-width="2"/>
<path d="M16.0607 20.9395L20.9393 16.0608C21.5251 15.475 21.5251 14.5252 20.9393 13.9395L20.0606 13.0608C19.4749 12.475 18.5251 12.475 17.9393 13.0607L13.0606 17.9393C12.4748 18.5251 12.4748 19.4749 13.0606 20.0607L13.9393 20.9395C14.5251 21.5252 15.4749 21.5253 16.0607 20.9395Z" stroke="black" stroke-width="2"/>
</svg>